<?xml version="1.0" encoding="UTF-8"?><svg xmlns="http://www.w3.org/2000/svg" xmlns:xlink="http://www.w3.org/1999/xlink" stroke-dasharray="none" shape-rendering="auto" font-family="'Dialog'" width="1118" text-rendering="auto" fill-opacity="1" contentScriptType="text/ecmascript" color-interpolation="auto" color-rendering="auto" preserveAspectRatio="xMidYMid meet" font-size="12" viewBox="0 0 1118 1280" fill="black" stroke="black" image-rendering="auto" stroke-miterlimit="10" zoomAndPan="magnify" version="1.0" stroke-linecap="square" stroke-linejoin="miter" contentStyleType="text/css" font-style="normal" height="1280" stroke-width="1" stroke-dashoffset="0" font-weight="normal" stroke-opacity="1">
    <!--Generated by the Batik Graphics2D SVG Generator-->
    <defs id="genericDefs"/>
    <g>
        <defs id="defs1">
            <linearGradient x1="50" x2="50" y1="50" gradientUnits="userSpaceOnUse" y2="1270" xlink:type="simple" xlink:actuate="onLoad" id="linearGradient1" xlink:show="other" spreadMethod="pad">
                <stop stop-opacity="1" stop-color="white" offset="0%"/>
                <stop stop-opacity="1" stop-color="white" offset="100%"/>
            </linearGradient>
            <linearGradient x1="130" x2="130" y1="795" gradientUnits="userSpaceOnUse" y2="915" xlink:type="simple" xlink:actuate="onLoad" id="linearGradient2" xlink:show="other" spreadMethod="pad">
                <stop stop-opacity="1" stop-color="white" offset="0%"/>
                <stop stop-opacity="1" stop-color="white" offset="100%"/>
            </linearGradient>
            <linearGradient x1="131" x2="131" y1="824" gradientUnits="userSpaceOnUse" y2="915" xlink:type="simple" xlink:actuate="onLoad" id="linearGradient3" xlink:show="other" spreadMethod="pad">
                <stop stop-opacity="1" stop-color="white" offset="0%"/>
                <stop stop-opacity="1" stop-color="rgb(195,209,213)" offset="100%"/>
            </linearGradient>
            <linearGradient x1="130" x2="130" y1="975" gradientUnits="userSpaceOnUse" y2="1096" xlink:type="simple" xlink:actuate="onLoad" id="linearGradient4" xlink:show="other" spreadMethod="pad">
                <stop stop-opacity="1" stop-color="white" offset="0%"/>
                <stop stop-opacity="1" stop-color="white" offset="100%"/>
            </linearGradient>
            <linearGradient x1="131" x2="131" y1="1004" gradientUnits="userSpaceOnUse" y2="1096" xlink:type="simple" xlink:actuate="onLoad" id="linearGradient5" xlink:show="other" spreadMethod="pad">
                <stop stop-opacity="1" stop-color="white" offset="0%"/>
                <stop stop-opacity="1" stop-color="rgb(195,209,213)" offset="100%"/>
            </linearGradient>
            <linearGradient x1="150" x2="150" y1="255" gradientUnits="userSpaceOnUse" y2="385" xlink:type="simple" xlink:actuate="onLoad" id="linearGradient6" xlink:show="other" spreadMethod="pad">
                <stop stop-opacity="1" stop-color="white" offset="0%"/>
                <stop stop-opacity="1" stop-color="white" offset="100%"/>
            </linearGradient>
            <linearGradient x1="151" x2="151" y1="284" gradientUnits="userSpaceOnUse" y2="385" xlink:type="simple" xlink:actuate="onLoad" id="linearGradient7" xlink:show="other" spreadMethod="pad">
                <stop stop-opacity="1" stop-color="white" offset="0%"/>
                <stop stop-opacity="1" stop-color="rgb(195,209,213)" offset="100%"/>
            </linearGradient>
            <linearGradient x1="129" x2="129" y1="94" gradientUnits="userSpaceOnUse" y2="1251" xlink:type="simple" xlink:actuate="onLoad" id="linearGradient8" xlink:show="other" spreadMethod="pad">
                <stop stop-opacity="1" stop-color="white" offset="0%"/>
                <stop stop-opacity="1" stop-color="rgb(195,209,213)" offset="100%"/>
            </linearGradient>
            <linearGradient x1="192" x2="192" y1="165" gradientUnits="userSpaceOnUse" y2="1245" xlink:type="simple" xlink:actuate="onLoad" id="linearGradient9" xlink:show="other" spreadMethod="pad">
                <stop stop-opacity="1" stop-color="white" offset="0%"/>
                <stop stop-opacity="1" stop-color="rgb(195,209,213)" offset="100%"/>
            </linearGradient>
            <linearGradient x1="490" x2="490" y1="94" gradientUnits="userSpaceOnUse" y2="1251" xlink:type="simple" xlink:actuate="onLoad" id="linearGradient10" xlink:show="other" spreadMethod="pad">
                <stop stop-opacity="1" stop-color="white" offset="0%"/>
                <stop stop-opacity="1" stop-color="rgb(195,209,213)" offset="100%"/>
            </linearGradient>
            <linearGradient x1="530" x2="530" y1="285" gradientUnits="userSpaceOnUse" y2="376" xlink:type="simple" xlink:actuate="onLoad" id="linearGradient11" xlink:show="other" spreadMethod="pad">
                <stop stop-opacity="1" stop-color="white" offset="0%"/>
                <stop stop-opacity="1" stop-color="rgb(195,209,213)" offset="100%"/>
            </linearGradient>
            <linearGradient x1="770" x2="770" y1="454" gradientUnits="userSpaceOnUse" y2="1251" xlink:type="simple" xlink:actuate="onLoad" id="linearGradient12" xlink:show="other" spreadMethod="pad">
                <stop stop-opacity="1" stop-color="white" offset="0%"/>
                <stop stop-opacity="1" stop-color="rgb(195,209,213)" offset="100%"/>
            </linearGradient>
            <linearGradient x1="825" x2="825" y1="495" gradientUnits="userSpaceOnUse" y2="585" xlink:type="simple" xlink:actuate="onLoad" id="linearGradient13" xlink:show="other" spreadMethod="pad">
                <stop stop-opacity="1" stop-color="white" offset="0%"/>
                <stop stop-opacity="1" stop-color="rgb(195,209,213)" offset="100%"/>
            </linearGradient>
            <linearGradient x1="640" x2="640" y1="345" gradientUnits="userSpaceOnUse" y2="432" xlink:type="simple" xlink:actuate="onLoad" id="linearGradient14" xlink:show="other" spreadMethod="pad">
                <stop stop-opacity="1" stop-color="rgb(255,255,204)" offset="0%"/>
                <stop stop-opacity="1" stop-color="white" offset="100%"/>
            </linearGradient>
            <clipPath clipPathUnits="userSpaceOnUse" id="clipPath1">
                <path d="M50 50 L50 1269 L906 1269 L906 50 Z"/>
            </clipPath>
            <clipPath clipPathUnits="userSpaceOnUse" id="clipPath2">
                <path d="M47 47 L910 47 L910 1273 L47 1273 L47 47 Z"/>
            </clipPath>
            <clipPath clipPathUnits="userSpaceOnUse" id="clipPath3">
                <path d="M55 52 L440 52 L440 79 L55 79 L55 52 Z"/>
            </clipPath>
            <clipPath clipPathUnits="userSpaceOnUse" id="clipPath4">
                <path d="M130 795 L130 914 L369 914 L369 795 Z"/>
            </clipPath>
            <clipPath clipPathUnits="userSpaceOnUse" id="clipPath5">
                <path d="M127 792 L373 792 L373 918 L127 918 L127 792 Z"/>
            </clipPath>
            <clipPath clipPathUnits="userSpaceOnUse" id="clipPath6">
                <path d="M130 797 L169 797 L169 824 L130 824 L130 797 Z"/>
            </clipPath>
            <clipPath clipPathUnits="userSpaceOnUse" id="clipPath7">
                <path d="M131 824 L131 914 L370 914 L370 824 Z"/>
            </clipPath>
            <clipPath clipPathUnits="userSpaceOnUse" id="clipPath8">
                <path d="M128 821 L373 821 L373 918 L128 918 L128 821 Z"/>
            </clipPath>
            <clipPath clipPathUnits="userSpaceOnUse" id="clipPath9">
                <path d="M129 794 L371 794 L371 916 L129 916 L129 794 Z"/>
            </clipPath>
            <clipPath clipPathUnits="userSpaceOnUse" id="clipPath10">
                <path d="M130 975 L130 1095 L430 1095 L430 975 Z"/>
            </clipPath>
            <clipPath clipPathUnits="userSpaceOnUse" id="clipPath11">
                <path d="M127 972 L434 972 L434 1099 L127 1099 L127 972 Z"/>
            </clipPath>
            <clipPath clipPathUnits="userSpaceOnUse" id="clipPath12">
                <path d="M130 977 L169 977 L169 1004 L130 1004 L130 977 Z"/>
            </clipPath>
            <clipPath clipPathUnits="userSpaceOnUse" id="clipPath13">
                <path d="M131 1004 L131 1095 L431 1095 L431 1004 Z"/>
            </clipPath>
            <clipPath clipPathUnits="userSpaceOnUse" id="clipPath14">
                <path d="M128 1001 L434 1001 L434 1099 L128 1099 L128 1001 Z"/>
            </clipPath>
            <clipPath clipPathUnits="userSpaceOnUse" id="clipPath15">
                <path d="M129 974 L432 974 L432 1097 L129 1097 L129 974 Z"/>
            </clipPath>
            <clipPath clipPathUnits="userSpaceOnUse" id="clipPath16">
                <path d="M150 255 L150 384 L590 384 L590 255 Z"/>
            </clipPath>
            <clipPath clipPathUnits="userSpaceOnUse" id="clipPath17">
                <path d="M147 252 L594 252 L594 388 L147 388 L147 252 Z"/>
            </clipPath>
            <clipPath clipPathUnits="userSpaceOnUse" id="clipPath18">
                <path d="M150 257 L172 257 L172 284 L150 284 L150 257 Z"/>
            </clipPath>
            <clipPath clipPathUnits="userSpaceOnUse" id="clipPath19">
                <path d="M151 284 L151 384 L591 384 L591 284 Z"/>
            </clipPath>
            <clipPath clipPathUnits="userSpaceOnUse" id="clipPath20">
                <path d="M148 281 L594 281 L594 388 L148 388 L148 281 Z"/>
            </clipPath>
            <clipPath clipPathUnits="userSpaceOnUse" id="clipPath21">
                <path d="M149 254 L592 254 L592 386 L149 386 L149 254 Z"/>
            </clipPath>
            <clipPath clipPathUnits="userSpaceOnUse" id="clipPath22">
                <path d="M128 93 L276 93 L276 1252 L128 1252 L128 93 Z"/>
            </clipPath>
            <clipPath clipPathUnits="userSpaceOnUse" id="clipPath23">
                <path d="M129 94 L129 1250 L274 1250 L274 94 Z"/>
            </clipPath>
            <clipPath clipPathUnits="userSpaceOnUse" id="clipPath24">
                <path d="M140 96 L266 96 L266 123 L140 123 L140 96 Z"/>
            </clipPath>
            <clipPath clipPathUnits="userSpaceOnUse" id="clipPath25">
                <path d="M192 165 L192 1244 L211 1244 L211 165 Z"/>
            </clipPath>
            <clipPath clipPathUnits="userSpaceOnUse" id="clipPath26">
                <path d="M191 164 L213 164 L213 1246 L191 1246 L191 164 Z"/>
            </clipPath>
            <clipPath clipPathUnits="userSpaceOnUse" id="clipPath27">
                <path d="M489 93 L591 93 L591 1252 L489 1252 L489 93 Z"/>
            </clipPath>
            <clipPath clipPathUnits="userSpaceOnUse" id="clipPath28">
                <path d="M490 94 L490 1250 L589 1250 L589 94 Z"/>
            </clipPath>
            <clipPath clipPathUnits="userSpaceOnUse" id="clipPath29">
                <path d="M504 96 L578 96 L578 123 L504 123 L504 96 Z"/>
            </clipPath>
            <clipPath clipPathUnits="userSpaceOnUse" id="clipPath30">
                <path d="M530 285 L530 375 L549 375 L549 285 Z"/>
            </clipPath>
            <clipPath clipPathUnits="userSpaceOnUse" id="clipPath31">
                <path d="M529 284 L551 284 L551 377 L529 377 L529 284 Z"/>
            </clipPath>
            <clipPath clipPathUnits="userSpaceOnUse" id="clipPath32">
                <path d="M769 453 L902 453 L902 1252 L769 1252 L769 453 Z"/>
            </clipPath>
            <clipPath clipPathUnits="userSpaceOnUse" id="clipPath33">
                <path d="M770 454 L770 1250 L900 1250 L900 454 Z"/>
            </clipPath>
            <clipPath clipPathUnits="userSpaceOnUse" id="clipPath34">
                <path d="M772 456 L900 456 L900 483 L772 483 L772 456 Z"/>
            </clipPath>
            <clipPath clipPathUnits="userSpaceOnUse" id="clipPath35">
                <path d="M825 495 L825 584 L844 584 L844 495 Z"/>
            </clipPath>
            <clipPath clipPathUnits="userSpaceOnUse" id="clipPath36">
                <path d="M824 494 L846 494 L846 586 L824 586 L824 494 Z"/>
            </clipPath>
            <clipPath clipPathUnits="userSpaceOnUse" id="clipPath37">
                <path d="M640 345 L640 431 L820 431 L820 357 L808 345 Z"/>
            </clipPath>
            <clipPath clipPathUnits="userSpaceOnUse" id="clipPath38">
                <path d="M645 350 L799 350 L799 427 L645 427 L645 350 Z"/>
            </clipPath>
            <clipPath clipPathUnits="userSpaceOnUse" id="clipPath39">
                <path d="M639 344 L822 344 L822 433 L639 433 L639 344 Z"/>
            </clipPath>
            <clipPath clipPathUnits="userSpaceOnUse" id="clipPath40">
                <path d="M49 49 L908 49 L908 1271 L49 1271 L49 49 Z"/>
            </clipPath>
            <clipPath clipPathUnits="userSpaceOnUse" id="clipPath41">
                <path d="M-1 -1 L1119 -1 L1119 1281 L-1 1281 L-1 -1 Z"/>
            </clipPath>
            <clipPath clipPathUnits="userSpaceOnUse" id="clipPath42">
                <path d="M288 585 L749 585 L749 612 L288 612 L288 585 Z"/>
            </clipPath>
            <clipPath clipPathUnits="userSpaceOnUse" id="clipPath43">
                <path d="M211 578 L230 578 L230 593 L211 593 L211 578 Z"/>
            </clipPath>
            <clipPath clipPathUnits="userSpaceOnUse" id="clipPath44">
                <path d="M324 293 L418 293 L418 320 L324 320 L324 293 Z"/>
            </clipPath>
            <clipPath clipPathUnits="userSpaceOnUse" id="clipPath45">
                <path d="M513 278 L532 278 L532 293 L513 293 L513 278 Z"/>
            </clipPath>
            <clipPath clipPathUnits="userSpaceOnUse" id="clipPath46">
                <path d="M291 342 L482 342 L482 369 L291 369 L291 342 Z"/>
            </clipPath>
            <clipPath clipPathUnits="userSpaceOnUse" id="clipPath47">
                <path d="M211 368 L230 368 L230 383 L211 383 L211 368 Z"/>
            </clipPath>
            <clipPath clipPathUnits="userSpaceOnUse" id="clipPath48">
                <path d="M262 181 L386 181 L386 208 L262 208 L262 181 Z"/>
            </clipPath>
            <clipPath clipPathUnits="userSpaceOnUse" id="clipPath49">
                <path d="M211 217 L230 217 L230 232 L211 232 L211 217 Z"/>
            </clipPath>
            <clipPath clipPathUnits="userSpaceOnUse" id="clipPath50">
                <path d="M230 847 L808 847 L808 874 L230 874 L230 847 Z"/>
            </clipPath>
            <clipPath clipPathUnits="userSpaceOnUse" id="clipPath51">
                <path d="M211 878 L230 878 L230 893 L211 893 L211 878 Z"/>
            </clipPath>
            <clipPath clipPathUnits="userSpaceOnUse" id="clipPath52">
                <path d="M260 683 L436 683 L436 710 L260 710 L260 683 Z"/>
            </clipPath>
            <clipPath clipPathUnits="userSpaceOnUse" id="clipPath53">
                <path d="M211 728 L230 728 L230 743 L211 743 L211 728 Z"/>
            </clipPath>
            <clipPath clipPathUnits="userSpaceOnUse" id="clipPath54">
                <path d="M350 439 L634 439 L634 466 L350 466 L350 439 Z"/>
            </clipPath>
            <clipPath clipPathUnits="userSpaceOnUse" id="clipPath55">
                <path d="M753 458 L772 458 L772 473 L753 473 L753 458 Z"/>
            </clipPath>
            <clipPath clipPathUnits="userSpaceOnUse" id="clipPath56">
                <path d="M892 521 L1096 521 L1096 548 L892 548 L892 521 Z"/>
            </clipPath>
            <clipPath clipPathUnits="userSpaceOnUse" id="clipPath57">
                <path d="M844 548 L863 548 L863 563 L844 563 L844 548 Z"/>
            </clipPath>
            <clipPath clipPathUnits="userSpaceOnUse" id="clipPath58">
                <path d="M236 1032 L742 1032 L742 1059 L236 1059 L236 1032 Z"/>
            </clipPath>
            <clipPath clipPathUnits="userSpaceOnUse" id="clipPath59">
                <path d="M211 1058 L230 1058 L230 1073 L211 1073 L211 1058 Z"/>
            </clipPath>
            <clipPath clipPathUnits="userSpaceOnUse" id="clipPath60">
                <path d="M257 1186 L475 1186 L475 1213 L257 1213 L257 1186 Z"/>
            </clipPath>
            <clipPath clipPathUnits="userSpaceOnUse" id="clipPath61">
                <path d="M211 1208 L230 1208 L230 1223 L211 1223 L211 1208 Z"/>
            </clipPath>
        </defs>
        <g font-size="18" fill="url(#linearGradient1)" font-family="'Segoe UI'" stroke-linejoin="round" stroke="url(#linearGradient1)" stroke-width="0" stroke-miterlimit="0">
            <rect x="50" y="50" clip-path="url(#clipPath1)" width="857" height="1220" stroke="none"/>
        </g>
        <g stroke-width="0.1" font-size="18" font-family="'Segoe UI'" stroke-linecap="butt">
            <line clip-path="url(#clipPath2)" fill="none" x1="453" x2="453" y1="50" y2="67"/>
            <line clip-path="url(#clipPath2)" fill="none" x1="453" x2="453" y1="67" y2="67"/>
            <line clip-path="url(#clipPath2)" fill="none" x1="453" x2="442" y1="67" y2="78"/>
            <line clip-path="url(#clipPath2)" fill="none" x1="442" x2="442" y1="78" y2="78"/>
            <line clip-path="url(#clipPath2)" fill="none" x1="442" x2="50" y1="78" y2="78"/>
            <text xml:space="preserve" x="56" y="73" clip-path="url(#clipPath3)" stroke="none">AddressQuerier : requestAddressInformations()  </text>
            <rect x="130" y="795" clip-path="url(#clipPath4)" fill="url(#linearGradient2)" width="240" height="120" stroke="none"/>
            <line clip-path="url(#clipPath5)" fill="none" x1="177" x2="177" y1="795" y2="812"/>
            <line clip-path="url(#clipPath5)" fill="none" x1="177" x2="177" y1="812" y2="812"/>
            <line clip-path="url(#clipPath5)" fill="none" x1="177" x2="166" y1="812" y2="823"/>
            <line clip-path="url(#clipPath5)" fill="none" x1="166" x2="166" y1="823" y2="823"/>
            <line clip-path="url(#clipPath5)" fill="none" x1="166" x2="130" y1="823" y2="823"/>
            <text xml:space="preserve" x="131" y="818" clip-path="url(#clipPath6)" stroke="none">loop</text>
            <rect x="131" y="824" clip-path="url(#clipPath7)" fill="url(#linearGradient3)" width="240" opacity="0" height="91" stroke="none"/>
            <line clip-path="url(#clipPath8)" fill="none" x1="131" x2="371" y1="824" y2="824" stroke-dasharray="6.6,3.3" stroke-width="1.1"/>
            <rect x="130" y="795" clip-path="url(#clipPath9)" fill="none" width="239" rx="0" ry="0" height="119" stroke-width="1.1"/>
            <rect x="130" y="975" clip-path="url(#clipPath10)" fill="url(#linearGradient4)" width="301" height="121" stroke="none" stroke-width="1.1"/>
            <line clip-path="url(#clipPath11)" fill="none" x1="177" x2="177" y1="975" y2="992"/>
            <line clip-path="url(#clipPath11)" fill="none" x1="177" x2="177" y1="992" y2="992"/>
            <line clip-path="url(#clipPath11)" fill="none" x1="177" x2="166" y1="992" y2="1003"/>
            <line clip-path="url(#clipPath11)" fill="none" x1="166" x2="166" y1="1003" y2="1003"/>
            <line clip-path="url(#clipPath11)" fill="none" x1="166" x2="130" y1="1003" y2="1003"/>
            <text xml:space="preserve" x="131" y="998" clip-path="url(#clipPath12)" stroke="none">loop</text>
            <rect x="131" y="1004" clip-path="url(#clipPath13)" fill="url(#linearGradient5)" width="301" opacity="0" height="92" stroke="none"/>
            <line clip-path="url(#clipPath14)" fill="none" x1="131" x2="432" y1="1004" y2="1004" stroke-dasharray="6.6,3.3" stroke-width="1.1"/>
            <rect x="130" y="975" clip-path="url(#clipPath15)" fill="none" width="300" rx="0" ry="0" height="120" stroke-width="1.1"/>
            <rect x="150" y="255" clip-path="url(#clipPath16)" fill="url(#linearGradient6)" width="441" height="130" stroke="none" stroke-width="1.1"/>
            <line clip-path="url(#clipPath17)" fill="none" x1="180" x2="180" y1="255" y2="272"/>
            <line clip-path="url(#clipPath17)" fill="none" x1="180" x2="180" y1="272" y2="272"/>
            <line clip-path="url(#clipPath17)" fill="none" x1="180" x2="169" y1="272" y2="283"/>
            <line clip-path="url(#clipPath17)" fill="none" x1="169" x2="169" y1="283" y2="283"/>
            <line clip-path="url(#clipPath17)" fill="none" x1="169" x2="150" y1="283" y2="283"/>
            <text xml:space="preserve" x="151" y="278" clip-path="url(#clipPath18)" stroke="none">alt</text>
            <rect x="151" y="284" clip-path="url(#clipPath19)" fill="url(#linearGradient7)" width="441" opacity="0" height="101" stroke="none"/>
            <line clip-path="url(#clipPath20)" fill="none" x1="151" x2="592" y1="284" y2="284" stroke-dasharray="6.6,3.3" stroke-width="1.1"/>
            <rect x="150" y="255" clip-path="url(#clipPath21)" fill="none" width="440" rx="0" ry="0" height="129" stroke-width="1.1"/>
            <rect x="129" y="94" clip-path="url(#clipPath22)" fill="none" width="145" height="28" stroke-width="1.1"/>
            <line clip-path="url(#clipPath22)" fill="none" x1="202" x2="202" y1="122" y2="1250" stroke-dasharray="5,5" stroke-width="1.1"/>
        </g>
        <g stroke-linecap="butt" font-size="18" fill="url(#linearGradient8)" font-family="'Segoe UI'" stroke-dasharray="5,5" stroke="url(#linearGradient8)" stroke-width="1.1">
            <rect x="129" y="94" clip-path="url(#clipPath23)" width="146" opacity="0" height="1157" stroke="none"/>
            <text x="141" y="117" clip-path="url(#clipPath24)" fill="black" stroke="none" xml:space="preserve">AddressQuerier</text>
            <rect x="192" y="165" clip-path="url(#clipPath25)" fill="url(#linearGradient9)" width="20" height="1080" stroke="none"/>
            <rect x="192" y="165" clip-path="url(#clipPath26)" fill="none" width="19" stroke-dasharray="none" rx="0" ry="0" height="1079" stroke="black"/>
            <rect x="490" y="94" clip-path="url(#clipPath27)" fill="none" width="99" stroke-dasharray="none" height="28" stroke="black"/>
            <line clip-path="url(#clipPath27)" fill="none" x1="540" x2="540" y1="122" y2="1250" stroke="black"/>
            <rect x="490" y="94" clip-path="url(#clipPath28)" fill="url(#linearGradient10)" width="100" opacity="0" height="1157" stroke="none"/>
            <text x="505" y="117" clip-path="url(#clipPath29)" fill="black" stroke="none" xml:space="preserve">ApiClient</text>
            <rect x="530" y="285" clip-path="url(#clipPath30)" fill="url(#linearGradient11)" width="20" height="91" stroke="none"/>
            <rect x="530" y="285" clip-path="url(#clipPath31)" fill="none" width="19" stroke-dasharray="none" rx="0" ry="0" height="90" stroke="black"/>
            <rect x="770" y="454" clip-path="url(#clipPath32)" fill="none" width="130" stroke-dasharray="none" height="28" stroke="black"/>
            <line clip-path="url(#clipPath32)" fill="none" x1="835" x2="835" y1="482" y2="1250" stroke="black"/>
            <rect x="770" y="454" clip-path="url(#clipPath33)" fill="url(#linearGradient12)" width="131" opacity="0" height="797" stroke="none"/>
            <text x="773" y="477" clip-path="url(#clipPath34)" fill="black" stroke="none" xml:space="preserve">Autocomplete...</text>
            <rect x="825" y="495" clip-path="url(#clipPath35)" fill="url(#linearGradient13)" width="20" height="90" stroke="none"/>
            <rect x="825" y="495" clip-path="url(#clipPath36)" fill="none" width="19" stroke-dasharray="none" rx="0" ry="0" height="89" stroke="black"/>
            <rect x="640" y="345" clip-path="url(#clipPath37)" fill="url(#linearGradient14)" width="181" stroke-dasharray="none" height="87" stroke="none"/>
            <text x="646" y="371" clip-path="url(#clipPath38)" fill="black" stroke-dasharray="none" stroke="none" xml:space="preserve">[other args are set</text>
            <text x="646" y="396" clip-path="url(#clipPath38)" fill="black" stroke-dasharray="none" stroke="none" xml:space="preserve">to null because not</text>
            <text x="646" y="421" clip-path="url(#clipPath38)" fill="black" stroke-dasharray="none" stroke="none" xml:space="preserve">use in our case]</text>
            <line clip-path="url(#clipPath39)" fill="none" x1="640" x2="808" y1="345" y2="345" stroke-dasharray="none" stroke="black"/>
            <line clip-path="url(#clipPath39)" fill="none" x1="808" x2="820" y1="345" y2="357" stroke-dasharray="none" stroke="black"/>
            <line clip-path="url(#clipPath39)" fill="none" x1="820" x2="820" y1="357" y2="431" stroke-dasharray="none" stroke="black"/>
            <line clip-path="url(#clipPath39)" fill="none" x1="820" x2="640" y1="431" y2="431" stroke-dasharray="none" stroke="black"/>
            <line clip-path="url(#clipPath39)" fill="none" x1="640" x2="640" y1="431" y2="345" stroke-dasharray="none" stroke="black"/>
            <line clip-path="url(#clipPath39)" fill="none" x1="640" x2="640" y1="345" y2="345" stroke-dasharray="none" stroke="black"/>
            <line clip-path="url(#clipPath39)" fill="none" x1="808" x2="808" y1="345" y2="357" stroke-dasharray="none" stroke="black"/>
            <line clip-path="url(#clipPath39)" fill="none" x1="808" x2="821" y1="357" y2="357" stroke-dasharray="none" stroke="black"/>
            <rect x="50" y="50" clip-path="url(#clipPath40)" fill="none" width="856" stroke-dasharray="none" rx="0" ry="0" height="1219" stroke="black"/>
        </g>
        <g stroke-linecap="butt" font-size="18" text-rendering="optimizeLegibility" font-family="'Segoe UI'" stroke-dasharray="6.6,3.3" stroke-width="1.1">
            <line clip-path="url(#clipPath41)" fill="none" x1="825" x2="212" y1="585" y2="585"/>
            <text xml:space="preserve" x="289" y="606" clip-path="url(#clipPath42)" stroke="none">List&lt;Object&gt; containing all information about the address</text>
            <line clip-path="url(#clipPath43)" fill="none" x1="228" x2="212" y1="579" y2="585" stroke-dasharray="none"/>
            <line clip-path="url(#clipPath43)" fill="none" x1="212" x2="228" y1="585" y2="591" stroke-dasharray="none"/>
            <line clip-path="url(#clipPath41)" fill="none" x1="212" x2="530" y1="285" y2="285" stroke-dasharray="none"/>
            <text x="325" y="314" clip-path="url(#clipPath44)" stroke-dasharray="none" stroke="none" xml:space="preserve">connexion()</text>
            <polygon stroke-dasharray="none" clip-path="url(#clipPath45)" points=" 530 285 514 291 514 279" stroke="none"/>
            <polygon fill="none" stroke-dasharray="none" clip-path="url(#clipPath45)" points=" 530 285 514 291 514 279"/>
            <line clip-path="url(#clipPath41)" fill="none" x1="530" x2="212" y1="375" y2="375"/>
            <text xml:space="preserve" x="292" y="363" clip-path="url(#clipPath46)" stroke="none">defaultClient : ApiClient </text>
            <line clip-path="url(#clipPath47)" fill="none" x1="228" x2="212" y1="369" y2="375" stroke-dasharray="none"/>
            <line clip-path="url(#clipPath47)" fill="none" x1="212" x2="228" y1="375" y2="381" stroke-dasharray="none"/>
            <line clip-path="url(#clipPath41)" fill="none" x1="640" x2="568" y1="423" y2="465"/>
            <line clip-path="url(#clipPath41)" fill="none" x1="202" x2="259" y1="164" y2="164" stroke-dasharray="none"/>
            <line clip-path="url(#clipPath41)" fill="none" x1="259" x2="259" y1="164" y2="224" stroke-dasharray="none"/>
            <line clip-path="url(#clipPath41)" fill="none" x1="259" x2="212" y1="224" y2="224" stroke-dasharray="none"/>
            <text x="263" y="202" clip-path="url(#clipPath48)" stroke-dasharray="none" stroke="none" xml:space="preserve">address : String</text>
            <polygon stroke-dasharray="none" clip-path="url(#clipPath49)" points=" 212 224 228 218 228 230" stroke="none"/>
            <polygon fill="none" stroke-dasharray="none" clip-path="url(#clipPath49)" points=" 212 224 228 218 228 230"/>
            <line clip-path="url(#clipPath41)" fill="none" x1="212" x2="264" y1="845" y2="845" stroke-dasharray="none"/>
            <line clip-path="url(#clipPath41)" fill="none" x1="264" x2="264" y1="845" y2="885" stroke-dasharray="none"/>
            <line clip-path="url(#clipPath41)" fill="none" x1="264" x2="212" y1="885" y2="885" stroke-dasharray="none"/>
            <text x="231" y="868" clip-path="url(#clipPath50)" stroke-dasharray="none" stroke="none" xml:space="preserve">convert object to String and store them to addressInformations attribute</text>
            <polygon stroke-dasharray="none" clip-path="url(#clipPath51)" points=" 212 885 228 879 228 891" stroke="none"/>
            <polygon fill="none" stroke-dasharray="none" clip-path="url(#clipPath51)" points=" 212 885 228 879 228 891"/>
            <line clip-path="url(#clipPath41)" fill="none" x1="212" x2="264" y1="667" y2="667" stroke-dasharray="none"/>
            <line clip-path="url(#clipPath41)" fill="none" x1="264" x2="264" y1="667" y2="735" stroke-dasharray="none"/>
            <line clip-path="url(#clipPath41)" fill="none" x1="264" x2="212" y1="735" y2="735" stroke-dasharray="none"/>
            <text x="261" y="704" clip-path="url(#clipPath52)" stroke-dasharray="none" stroke="none" xml:space="preserve">List&lt;Object&gt;.iterator()</text>
            <polygon stroke-dasharray="none" clip-path="url(#clipPath53)" points=" 212 735 228 729 228 741" stroke="none"/>
            <polygon fill="none" stroke-dasharray="none" clip-path="url(#clipPath53)" points=" 212 735 228 729 228 741"/>
            <line clip-path="url(#clipPath41)" fill="none" x1="212" x2="770" y1="465" y2="465"/>
            <text xml:space="preserve" x="351" y="460" clip-path="url(#clipPath54)" stroke="none">AutocompleteApi(this.defaultClient)</text>
            <line clip-path="url(#clipPath55)" fill="none" x1="754" x2="770" y1="471" y2="465" stroke-dasharray="none"/>
            <line clip-path="url(#clipPath55)" fill="none" x1="770" x2="754" y1="465" y2="459" stroke-dasharray="none"/>
            <line clip-path="url(#clipPath41)" fill="none" x1="845" x2="907" y1="524" y2="524" stroke-dasharray="none"/>
            <line clip-path="url(#clipPath41)" fill="none" x1="907" x2="907" y1="524" y2="555" stroke-dasharray="none"/>
            <line clip-path="url(#clipPath41)" fill="none" x1="907" x2="845" y1="555" y2="555" stroke-dasharray="none"/>
            <text x="893" y="542" clip-path="url(#clipPath56)" stroke-dasharray="none" stroke="none" xml:space="preserve">autocomplete(address, 1)</text>
            <polygon stroke-dasharray="none" clip-path="url(#clipPath57)" points=" 845 555 861 549 861 561" stroke="none"/>
            <polygon fill="none" stroke-dasharray="none" clip-path="url(#clipPath57)" points=" 845 555 861 549 861 561"/>
            <line clip-path="url(#clipPath41)" fill="none" x1="212" x2="254" y1="1035" y2="1035" stroke-dasharray="none"/>
            <line clip-path="url(#clipPath41)" fill="none" x1="254" x2="254" y1="1035" y2="1065" stroke-dasharray="none"/>
            <line clip-path="url(#clipPath41)" fill="none" x1="254" x2="212" y1="1065" y2="1065" stroke-dasharray="none"/>
            <text x="237" y="1053" clip-path="url(#clipPath58)" stroke-dasharray="none" stroke="none" xml:space="preserve">Change format for each row in addressInformations: delete hug</text>
            <polygon stroke-dasharray="none" clip-path="url(#clipPath59)" points=" 212 1065 228 1059 228 1071" stroke="none"/>
            <polygon fill="none" stroke-dasharray="none" clip-path="url(#clipPath59)" points=" 212 1065 228 1059 228 1071"/>
            <line clip-path="url(#clipPath41)" fill="none" x1="212" x2="254" y1="1183" y2="1183" stroke-dasharray="none"/>
            <line clip-path="url(#clipPath41)" fill="none" x1="254" x2="254" y1="1183" y2="1215" stroke-dasharray="none"/>
            <line clip-path="url(#clipPath41)" fill="none" x1="254" x2="212" y1="1215" y2="1215" stroke-dasharray="none"/>
            <text x="258" y="1207" clip-path="url(#clipPath60)" stroke-dasharray="none" stroke="none" xml:space="preserve">return addressInformations</text>
            <polygon stroke-dasharray="none" clip-path="url(#clipPath61)" points=" 212 1215 228 1209 228 1221" stroke="none"/>
            <polygon fill="none" stroke-dasharray="none" clip-path="url(#clipPath61)" points=" 212 1215 228 1209 228 1221"/>
            <line clip-path="url(#clipPath41)" fill="none" x1="212" x2="530" y1="285" y2="285" stroke-dasharray="none"/>
            <text x="325" y="314" clip-path="url(#clipPath44)" stroke-dasharray="none" stroke="none" xml:space="preserve">connexion()</text>
            <polygon stroke-dasharray="none" clip-path="url(#clipPath45)" points=" 530 285 514 291 514 279" stroke="none"/>
            <polygon fill="none" stroke-dasharray="none" clip-path="url(#clipPath45)" points=" 530 285 514 291 514 279"/>
            <line clip-path="url(#clipPath41)" fill="none" x1="530" x2="212" y1="375" y2="375"/>
            <text xml:space="preserve" x="292" y="363" clip-path="url(#clipPath46)" stroke="none">defaultClient : ApiClient </text>
            <line clip-path="url(#clipPath47)" fill="none" x1="228" x2="212" y1="369" y2="375" stroke-dasharray="none"/>
            <line clip-path="url(#clipPath47)" fill="none" x1="212" x2="228" y1="375" y2="381" stroke-dasharray="none"/>
            <line clip-path="url(#clipPath41)" fill="none" x1="825" x2="212" y1="585" y2="585"/>
            <text xml:space="preserve" x="289" y="606" clip-path="url(#clipPath42)" stroke="none">List&lt;Object&gt; containing all information about the address</text>
            <line clip-path="url(#clipPath43)" fill="none" x1="228" x2="212" y1="579" y2="585" stroke-dasharray="none"/>
            <line clip-path="url(#clipPath43)" fill="none" x1="212" x2="228" y1="585" y2="591" stroke-dasharray="none"/>
            <line clip-path="url(#clipPath41)" fill="none" x1="202" x2="259" y1="164" y2="164" stroke-dasharray="none"/>
            <line clip-path="url(#clipPath41)" fill="none" x1="259" x2="259" y1="164" y2="224" stroke-dasharray="none"/>
            <line clip-path="url(#clipPath41)" fill="none" x1="259" x2="212" y1="224" y2="224" stroke-dasharray="none"/>
            <text x="263" y="202" clip-path="url(#clipPath48)" stroke-dasharray="none" stroke="none" xml:space="preserve">address : String</text>
            <polygon stroke-dasharray="none" clip-path="url(#clipPath49)" points=" 212 224 228 218 228 230" stroke="none"/>
            <polygon fill="none" stroke-dasharray="none" clip-path="url(#clipPath49)" points=" 212 224 228 218 228 230"/>
            <line clip-path="url(#clipPath41)" fill="none" x1="212" x2="264" y1="845" y2="845" stroke-dasharray="none"/>
            <line clip-path="url(#clipPath41)" fill="none" x1="264" x2="264" y1="845" y2="885" stroke-dasharray="none"/>
            <line clip-path="url(#clipPath41)" fill="none" x1="264" x2="212" y1="885" y2="885" stroke-dasharray="none"/>
            <text x="231" y="868" clip-path="url(#clipPath50)" stroke-dasharray="none" stroke="none" xml:space="preserve">convert object to String and store them to addressInformations attribute</text>
            <polygon stroke-dasharray="none" clip-path="url(#clipPath51)" points=" 212 885 228 879 228 891" stroke="none"/>
            <polygon fill="none" stroke-dasharray="none" clip-path="url(#clipPath51)" points=" 212 885 228 879 228 891"/>
            <line clip-path="url(#clipPath41)" fill="none" x1="212" x2="264" y1="667" y2="667" stroke-dasharray="none"/>
            <line clip-path="url(#clipPath41)" fill="none" x1="264" x2="264" y1="667" y2="735" stroke-dasharray="none"/>
            <line clip-path="url(#clipPath41)" fill="none" x1="264" x2="212" y1="735" y2="735" stroke-dasharray="none"/>
            <text x="261" y="704" clip-path="url(#clipPath52)" stroke-dasharray="none" stroke="none" xml:space="preserve">List&lt;Object&gt;.iterator()</text>
            <polygon stroke-dasharray="none" clip-path="url(#clipPath53)" points=" 212 735 228 729 228 741" stroke="none"/>
            <polygon fill="none" stroke-dasharray="none" clip-path="url(#clipPath53)" points=" 212 735 228 729 228 741"/>
            <line clip-path="url(#clipPath41)" fill="none" x1="212" x2="770" y1="465" y2="465"/>
            <text xml:space="preserve" x="351" y="460" clip-path="url(#clipPath54)" stroke="none">AutocompleteApi(this.defaultClient)</text>
            <line clip-path="url(#clipPath55)" fill="none" x1="754" x2="770" y1="471" y2="465" stroke-dasharray="none"/>
            <line clip-path="url(#clipPath55)" fill="none" x1="770" x2="754" y1="465" y2="459" stroke-dasharray="none"/>
            <line clip-path="url(#clipPath41)" fill="none" x1="640" x2="568" y1="423" y2="465"/>
            <line clip-path="url(#clipPath41)" fill="none" x1="212" x2="254" y1="1035" y2="1035" stroke-dasharray="none"/>
            <line clip-path="url(#clipPath41)" fill="none" x1="254" x2="254" y1="1035" y2="1065" stroke-dasharray="none"/>
            <line clip-path="url(#clipPath41)" fill="none" x1="254" x2="212" y1="1065" y2="1065" stroke-dasharray="none"/>
            <text x="237" y="1053" clip-path="url(#clipPath58)" stroke-dasharray="none" stroke="none" xml:space="preserve">Change format for each row in addressInformations: delete hug</text>
            <polygon stroke-dasharray="none" clip-path="url(#clipPath59)" points=" 212 1065 228 1059 228 1071" stroke="none"/>
            <polygon fill="none" stroke-dasharray="none" clip-path="url(#clipPath59)" points=" 212 1065 228 1059 228 1071"/>
            <line clip-path="url(#clipPath41)" fill="none" x1="212" x2="254" y1="1183" y2="1183" stroke-dasharray="none"/>
            <line clip-path="url(#clipPath41)" fill="none" x1="254" x2="254" y1="1183" y2="1215" stroke-dasharray="none"/>
            <line clip-path="url(#clipPath41)" fill="none" x1="254" x2="212" y1="1215" y2="1215" stroke-dasharray="none"/>
            <text x="258" y="1207" clip-path="url(#clipPath60)" stroke-dasharray="none" stroke="none" xml:space="preserve">return addressInformations</text>
            <polygon stroke-dasharray="none" clip-path="url(#clipPath61)" points=" 212 1215 228 1209 228 1221" stroke="none"/>
            <polygon fill="none" stroke-dasharray="none" clip-path="url(#clipPath61)" points=" 212 1215 228 1209 228 1221"/>
            <line clip-path="url(#clipPath41)" fill="none" x1="845" x2="907" y1="524" y2="524" stroke-dasharray="none"/>
            <line clip-path="url(#clipPath41)" fill="none" x1="907" x2="907" y1="524" y2="555" stroke-dasharray="none"/>
            <line clip-path="url(#clipPath41)" fill="none" x1="907" x2="845" y1="555" y2="555" stroke-dasharray="none"/>
            <text x="893" y="542" clip-path="url(#clipPath56)" stroke-dasharray="none" stroke="none" xml:space="preserve">autocomplete(address, 1)</text>
            <polygon stroke-dasharray="none" clip-path="url(#clipPath57)" points=" 845 555 861 549 861 561" stroke="none"/>
            <polygon fill="none" stroke-dasharray="none" clip-path="url(#clipPath57)" points=" 845 555 861 549 861 561"/>
        </g>
    </g>
</svg>
