<?xml version="1.0" encoding="UTF-8"?><svg xmlns="http://www.w3.org/2000/svg" xmlns:xlink="http://www.w3.org/1999/xlink" stroke-dasharray="none" shape-rendering="auto" font-family="'Dialog'" width="1205" text-rendering="auto" fill-opacity="1" contentScriptType="text/ecmascript" color-interpolation="auto" color-rendering="auto" preserveAspectRatio="xMidYMid meet" font-size="12" viewBox="0 0 1205 1985" fill="black" stroke="black" image-rendering="auto" stroke-miterlimit="10" zoomAndPan="magnify" version="1.0" stroke-linecap="square" stroke-linejoin="miter" contentStyleType="text/css" font-style="normal" height="1985" stroke-width="1" stroke-dashoffset="0" font-weight="normal" stroke-opacity="1">
    <!--Generated by the Batik Graphics2D SVG Generator-->
    <defs id="genericDefs"/>
    <g>
        <defs id="defs1">
            <linearGradient x1="50" x2="50" y1="50" gradientUnits="userSpaceOnUse" y2="1975" xlink:type="simple" xlink:actuate="onLoad" id="linearGradient1" xlink:show="other" spreadMethod="pad">
                <stop stop-opacity="1" stop-color="white" offset="0%"/>
                <stop stop-opacity="1" stop-color="white" offset="100%"/>
            </linearGradient>
            <linearGradient x1="70" x2="70" y1="1115" gradientUnits="userSpaceOnUse" y2="1776" xlink:type="simple" xlink:actuate="onLoad" id="linearGradient2" xlink:show="other" spreadMethod="pad">
                <stop stop-opacity="1" stop-color="white" offset="0%"/>
                <stop stop-opacity="1" stop-color="white" offset="100%"/>
            </linearGradient>
            <linearGradient x1="71" x2="71" y1="1144" gradientUnits="userSpaceOnUse" y2="1776" xlink:type="simple" xlink:actuate="onLoad" id="linearGradient3" xlink:show="other" spreadMethod="pad">
                <stop stop-opacity="1" stop-color="white" offset="0%"/>
                <stop stop-opacity="1" stop-color="rgb(195,209,213)" offset="100%"/>
            </linearGradient>
            <linearGradient x1="90" x2="90" y1="1435" gradientUnits="userSpaceOnUse" y2="1716" xlink:type="simple" xlink:actuate="onLoad" id="linearGradient4" xlink:show="other" spreadMethod="pad">
                <stop stop-opacity="1" stop-color="white" offset="0%"/>
                <stop stop-opacity="1" stop-color="white" offset="100%"/>
            </linearGradient>
            <linearGradient x1="91" x2="91" y1="1464" gradientUnits="userSpaceOnUse" y2="1716" xlink:type="simple" xlink:actuate="onLoad" id="linearGradient5" xlink:show="other" spreadMethod="pad">
                <stop stop-opacity="1" stop-color="white" offset="0%"/>
                <stop stop-opacity="1" stop-color="rgb(195,209,213)" offset="100%"/>
            </linearGradient>
            <linearGradient x1="77" x2="77" y1="94" gradientUnits="userSpaceOnUse" y2="1956" xlink:type="simple" xlink:actuate="onLoad" id="linearGradient6" xlink:show="other" spreadMethod="pad">
                <stop stop-opacity="1" stop-color="white" offset="0%"/>
                <stop stop-opacity="1" stop-color="rgb(195,209,213)" offset="100%"/>
            </linearGradient>
            <linearGradient x1="134" x2="134" y1="175" gradientUnits="userSpaceOnUse" y2="1895" xlink:type="simple" xlink:actuate="onLoad" id="linearGradient7" xlink:show="other" spreadMethod="pad">
                <stop stop-opacity="1" stop-color="white" offset="0%"/>
                <stop stop-opacity="1" stop-color="rgb(195,209,213)" offset="100%"/>
            </linearGradient>
            <linearGradient x1="410" x2="410" y1="94" gradientUnits="userSpaceOnUse" y2="476" xlink:type="simple" xlink:actuate="onLoad" id="linearGradient8" xlink:show="other" spreadMethod="pad">
                <stop stop-opacity="1" stop-color="white" offset="0%"/>
                <stop stop-opacity="1" stop-color="rgb(195,209,213)" offset="100%"/>
            </linearGradient>
            <linearGradient x1="460" x2="460" y1="175" gradientUnits="userSpaceOnUse" y2="256" xlink:type="simple" xlink:actuate="onLoad" id="linearGradient9" xlink:show="other" spreadMethod="pad">
                <stop stop-opacity="1" stop-color="white" offset="0%"/>
                <stop stop-opacity="1" stop-color="rgb(195,209,213)" offset="100%"/>
            </linearGradient>
            <linearGradient x1="460" x2="460" y1="315" gradientUnits="userSpaceOnUse" y2="415" xlink:type="simple" xlink:actuate="onLoad" id="linearGradient10" xlink:show="other" spreadMethod="pad">
                <stop stop-opacity="1" stop-color="white" offset="0%"/>
                <stop stop-opacity="1" stop-color="rgb(195,209,213)" offset="100%"/>
            </linearGradient>
            <linearGradient x1="690" x2="690" y1="404" gradientUnits="userSpaceOnUse" y2="596" xlink:type="simple" xlink:actuate="onLoad" id="linearGradient11" xlink:show="other" spreadMethod="pad">
                <stop stop-opacity="1" stop-color="white" offset="0%"/>
                <stop stop-opacity="1" stop-color="rgb(195,209,213)" offset="100%"/>
            </linearGradient>
            <linearGradient x1="740" x2="740" y1="455" gradientUnits="userSpaceOnUse" y2="555" xlink:type="simple" xlink:actuate="onLoad" id="linearGradient12" xlink:show="other" spreadMethod="pad">
                <stop stop-opacity="1" stop-color="white" offset="0%"/>
                <stop stop-opacity="1" stop-color="rgb(195,209,213)" offset="100%"/>
            </linearGradient>
            <linearGradient x1="1090" x2="1090" y1="94" gradientUnits="userSpaceOnUse" y2="1336" xlink:type="simple" xlink:actuate="onLoad" id="linearGradient13" xlink:show="other" spreadMethod="pad">
                <stop stop-opacity="1" stop-color="white" offset="0%"/>
                <stop stop-opacity="1" stop-color="rgb(195,209,213)" offset="100%"/>
            </linearGradient>
            <linearGradient x1="1130" x2="1130" y1="1195" gradientUnits="userSpaceOnUse" y2="1256" xlink:type="simple" xlink:actuate="onLoad" id="linearGradient14" xlink:show="other" spreadMethod="pad">
                <stop stop-opacity="1" stop-color="white" offset="0%"/>
                <stop stop-opacity="1" stop-color="rgb(195,209,213)" offset="100%"/>
            </linearGradient>
            <linearGradient x1="215" x2="215" y1="992" gradientUnits="userSpaceOnUse" y2="1052" xlink:type="simple" xlink:actuate="onLoad" id="linearGradient15" xlink:show="other" spreadMethod="pad">
                <stop stop-opacity="1" stop-color="rgb(255,255,204)" offset="0%"/>
                <stop stop-opacity="1" stop-color="white" offset="100%"/>
            </linearGradient>
            <linearGradient x1="830" x2="830" y1="94" gradientUnits="userSpaceOnUse" y2="1756" xlink:type="simple" xlink:actuate="onLoad" id="linearGradient16" xlink:show="other" spreadMethod="pad">
                <stop stop-opacity="1" stop-color="white" offset="0%"/>
                <stop stop-opacity="1" stop-color="rgb(195,209,213)" offset="100%"/>
            </linearGradient>
            <linearGradient x1="890" x2="890" y1="1555" gradientUnits="userSpaceOnUse" y2="1655" xlink:type="simple" xlink:actuate="onLoad" id="linearGradient17" xlink:show="other" spreadMethod="pad">
                <stop stop-opacity="1" stop-color="white" offset="0%"/>
                <stop stop-opacity="1" stop-color="rgb(195,209,213)" offset="100%"/>
            </linearGradient>
            <clipPath clipPathUnits="userSpaceOnUse" id="clipPath1">
                <path d="M50 50 L50 1974 L1194 1974 L1194 50 Z"/>
            </clipPath>
            <clipPath clipPathUnits="userSpaceOnUse" id="clipPath2">
                <path d="M47 47 L1198 47 L1198 1978 L47 1978 L47 47 Z"/>
            </clipPath>
            <clipPath clipPathUnits="userSpaceOnUse" id="clipPath3">
                <path d="M55 52 L529 52 L529 79 L55 79 L55 52 Z"/>
            </clipPath>
            <clipPath clipPathUnits="userSpaceOnUse" id="clipPath4">
                <path d="M70 1115 L70 1775 L1170 1775 L1170 1115 Z"/>
            </clipPath>
            <clipPath clipPathUnits="userSpaceOnUse" id="clipPath5">
                <path d="M67 1112 L1174 1112 L1174 1779 L67 1779 L67 1112 Z"/>
            </clipPath>
            <clipPath clipPathUnits="userSpaceOnUse" id="clipPath6">
                <path d="M70 1117 L109 1117 L109 1144 L70 1144 L70 1117 Z"/>
            </clipPath>
            <clipPath clipPathUnits="userSpaceOnUse" id="clipPath7">
                <path d="M71 1144 L71 1775 L1171 1775 L1171 1144 Z"/>
            </clipPath>
            <clipPath clipPathUnits="userSpaceOnUse" id="clipPath8">
                <path d="M68 1141 L1174 1141 L1174 1779 L68 1779 L68 1141 Z"/>
            </clipPath>
            <clipPath clipPathUnits="userSpaceOnUse" id="clipPath9">
                <path d="M69 1114 L1172 1114 L1172 1777 L69 1777 L69 1114 Z"/>
            </clipPath>
            <clipPath clipPathUnits="userSpaceOnUse" id="clipPath10">
                <path d="M90 1435 L90 1715 L950 1715 L950 1435 Z"/>
            </clipPath>
            <clipPath clipPathUnits="userSpaceOnUse" id="clipPath11">
                <path d="M87 1432 L954 1432 L954 1719 L87 1719 L87 1432 Z"/>
            </clipPath>
            <clipPath clipPathUnits="userSpaceOnUse" id="clipPath12">
                <path d="M90 1437 L129 1437 L129 1464 L90 1464 L90 1437 Z"/>
            </clipPath>
            <clipPath clipPathUnits="userSpaceOnUse" id="clipPath13">
                <path d="M91 1464 L91 1715 L951 1715 L951 1464 Z"/>
            </clipPath>
            <clipPath clipPathUnits="userSpaceOnUse" id="clipPath14">
                <path d="M88 1461 L954 1461 L954 1719 L88 1719 L88 1461 Z"/>
            </clipPath>
            <clipPath clipPathUnits="userSpaceOnUse" id="clipPath15">
                <path d="M89 1434 L952 1434 L952 1717 L89 1717 L89 1434 Z"/>
            </clipPath>
            <clipPath clipPathUnits="userSpaceOnUse" id="clipPath16">
                <path d="M76 93 L212 93 L212 1957 L76 1957 L76 93 Z"/>
            </clipPath>
            <clipPath clipPathUnits="userSpaceOnUse" id="clipPath17">
                <path d="M77 94 L77 1955 L210 1955 L210 94 Z"/>
            </clipPath>
            <clipPath clipPathUnits="userSpaceOnUse" id="clipPath18">
                <path d="M83 96 L206 96 L206 123 L83 123 L83 96 Z"/>
            </clipPath>
            <clipPath clipPathUnits="userSpaceOnUse" id="clipPath19">
                <path d="M134 175 L134 1894 L153 1894 L153 175 Z"/>
            </clipPath>
            <clipPath clipPathUnits="userSpaceOnUse" id="clipPath20">
                <path d="M133 174 L155 174 L155 1896 L133 1896 L133 174 Z"/>
            </clipPath>
            <clipPath clipPathUnits="userSpaceOnUse" id="clipPath21">
                <path d="M409 93 L532 93 L532 477 L409 477 L409 93 Z"/>
            </clipPath>
            <clipPath clipPathUnits="userSpaceOnUse" id="clipPath22">
                <path d="M410 94 L410 475 L530 475 L530 94 Z"/>
            </clipPath>
            <clipPath clipPathUnits="userSpaceOnUse" id="clipPath23">
                <path d="M411 96 L531 96 L531 123 L411 123 L411 96 Z"/>
            </clipPath>
            <clipPath clipPathUnits="userSpaceOnUse" id="clipPath24">
                <path d="M460 175 L460 255 L479 255 L479 175 Z"/>
            </clipPath>
            <clipPath clipPathUnits="userSpaceOnUse" id="clipPath25">
                <path d="M459 174 L481 174 L481 257 L459 257 L459 174 Z"/>
            </clipPath>
            <clipPath clipPathUnits="userSpaceOnUse" id="clipPath26">
                <path d="M460 315 L460 414 L479 414 L479 315 Z"/>
            </clipPath>
            <clipPath clipPathUnits="userSpaceOnUse" id="clipPath27">
                <path d="M459 314 L481 314 L481 416 L459 416 L459 314 Z"/>
            </clipPath>
            <clipPath clipPathUnits="userSpaceOnUse" id="clipPath28">
                <path d="M689 403 L812 403 L812 597 L689 597 L689 403 Z"/>
            </clipPath>
            <clipPath clipPathUnits="userSpaceOnUse" id="clipPath29">
                <path d="M690 404 L690 595 L810 595 L810 404 Z"/>
            </clipPath>
            <clipPath clipPathUnits="userSpaceOnUse" id="clipPath30">
                <path d="M692 406 L811 406 L811 433 L692 433 L692 406 Z"/>
            </clipPath>
            <clipPath clipPathUnits="userSpaceOnUse" id="clipPath31">
                <path d="M740 455 L740 554 L759 554 L759 455 Z"/>
            </clipPath>
            <clipPath clipPathUnits="userSpaceOnUse" id="clipPath32">
                <path d="M739 454 L761 454 L761 556 L739 556 L739 454 Z"/>
            </clipPath>
            <clipPath clipPathUnits="userSpaceOnUse" id="clipPath33">
                <path d="M1089 93 L1191 93 L1191 1337 L1089 1337 L1089 93 Z"/>
            </clipPath>
            <clipPath clipPathUnits="userSpaceOnUse" id="clipPath34">
                <path d="M1090 94 L1090 1335 L1189 1335 L1189 94 Z"/>
            </clipPath>
            <clipPath clipPathUnits="userSpaceOnUse" id="clipPath35">
                <path d="M1105 96 L1177 96 L1177 123 L1105 123 L1105 96 Z"/>
            </clipPath>
            <clipPath clipPathUnits="userSpaceOnUse" id="clipPath36">
                <path d="M1130 1195 L1130 1255 L1149 1255 L1149 1195 Z"/>
            </clipPath>
            <clipPath clipPathUnits="userSpaceOnUse" id="clipPath37">
                <path d="M1129 1194 L1151 1194 L1151 1257 L1129 1257 L1129 1194 Z"/>
            </clipPath>
            <clipPath clipPathUnits="userSpaceOnUse" id="clipPath38">
                <path d="M215 992 L215 1051 L426 1051 L426 1004 L414 992 Z"/>
            </clipPath>
            <clipPath clipPathUnits="userSpaceOnUse" id="clipPath39">
                <path d="M220 997 L413 997 L413 1024 L220 1024 L220 997 Z"/>
            </clipPath>
            <clipPath clipPathUnits="userSpaceOnUse" id="clipPath40">
                <path d="M214 991 L428 991 L428 1053 L214 1053 L214 991 Z"/>
            </clipPath>
            <clipPath clipPathUnits="userSpaceOnUse" id="clipPath41">
                <path d="M829 93 L972 93 L972 1757 L829 1757 L829 93 Z"/>
            </clipPath>
            <clipPath clipPathUnits="userSpaceOnUse" id="clipPath42">
                <path d="M830 94 L830 1755 L970 1755 L970 94 Z"/>
            </clipPath>
            <clipPath clipPathUnits="userSpaceOnUse" id="clipPath43">
                <path d="M830 96 L972 96 L972 123 L830 123 L830 96 Z"/>
            </clipPath>
            <clipPath clipPathUnits="userSpaceOnUse" id="clipPath44">
                <path d="M890 1555 L890 1654 L909 1654 L909 1555 Z"/>
            </clipPath>
            <clipPath clipPathUnits="userSpaceOnUse" id="clipPath45">
                <path d="M889 1554 L911 1554 L911 1656 L889 1656 L889 1554 Z"/>
            </clipPath>
            <clipPath clipPathUnits="userSpaceOnUse" id="clipPath46">
                <path d="M49 49 L1196 49 L1196 1976 L49 1976 L49 49 Z"/>
            </clipPath>
            <clipPath clipPathUnits="userSpaceOnUse" id="clipPath47">
                <path d="M-1 -1 L1206 -1 L1206 1986 L-1 1986 L-1 -1 Z"/>
            </clipPath>
            <clipPath clipPathUnits="userSpaceOnUse" id="clipPath48">
                <path d="M401 1655 L641 1655 L641 1682 L401 1682 L401 1655 Z"/>
            </clipPath>
            <clipPath clipPathUnits="userSpaceOnUse" id="clipPath49">
                <path d="M153 1648 L172 1648 L172 1663 L153 1663 L153 1648 Z"/>
            </clipPath>
            <clipPath clipPathUnits="userSpaceOnUse" id="clipPath50">
                <path d="M186 1492 L454 1492 L454 1519 L186 1519 L186 1492 Z"/>
            </clipPath>
            <clipPath clipPathUnits="userSpaceOnUse" id="clipPath51">
                <path d="M153 1528 L172 1528 L172 1543 L153 1543 L153 1528 Z"/>
            </clipPath>
            <clipPath clipPathUnits="userSpaceOnUse" id="clipPath52">
                <path d="M168 149 L448 149 L448 176 L168 176 L168 149 Z"/>
            </clipPath>
            <clipPath clipPathUnits="userSpaceOnUse" id="clipPath53">
                <path d="M443 168 L462 168 L462 183 L443 183 L443 168 Z"/>
            </clipPath>
            <clipPath clipPathUnits="userSpaceOnUse" id="clipPath54">
                <path d="M199 803 L500 803 L500 830 L199 830 L199 803 Z"/>
            </clipPath>
            <clipPath clipPathUnits="userSpaceOnUse" id="clipPath55">
                <path d="M153 848 L172 848 L172 863 L153 863 L153 848 Z"/>
            </clipPath>
            <clipPath clipPathUnits="userSpaceOnUse" id="clipPath56">
                <path d="M152 289 L464 289 L464 316 L152 316 L152 289 Z"/>
            </clipPath>
            <clipPath clipPathUnits="userSpaceOnUse" id="clipPath57">
                <path d="M443 308 L462 308 L462 323 L443 323 L443 308 Z"/>
            </clipPath>
            <clipPath clipPathUnits="userSpaceOnUse" id="clipPath58">
                <path d="M199 702 L456 702 L456 729 L199 729 L199 702 Z"/>
            </clipPath>
            <clipPath clipPathUnits="userSpaceOnUse" id="clipPath59">
                <path d="M153 748 L172 748 L172 763 L153 763 L153 748 Z"/>
            </clipPath>
            <clipPath clipPathUnits="userSpaceOnUse" id="clipPath60">
                <path d="M185 1312 L496 1312 L496 1339 L185 1339 L185 1312 Z"/>
            </clipPath>
            <clipPath clipPathUnits="userSpaceOnUse" id="clipPath61">
                <path d="M153 1348 L172 1348 L172 1363 L153 1363 L153 1348 Z"/>
            </clipPath>
            <clipPath clipPathUnits="userSpaceOnUse" id="clipPath62">
                <path d="M190 255 L422 255 L422 282 L190 282 L190 255 Z"/>
            </clipPath>
            <clipPath clipPathUnits="userSpaceOnUse" id="clipPath63">
                <path d="M153 248 L172 248 L172 263 L153 263 L153 248 Z"/>
            </clipPath>
            <clipPath clipPathUnits="userSpaceOnUse" id="clipPath64">
                <path d="M494 389 L678 389 L678 416 L494 416 L494 389 Z"/>
            </clipPath>
            <clipPath clipPathUnits="userSpaceOnUse" id="clipPath65">
                <path d="M673 408 L692 408 L692 423 L673 423 L673 408 Z"/>
            </clipPath>
            <clipPath clipPathUnits="userSpaceOnUse" id="clipPath66">
                <path d="M474 1255 L808 1255 L808 1282 L474 1282 L474 1255 Z"/>
            </clipPath>
            <clipPath clipPathUnits="userSpaceOnUse" id="clipPath67">
                <path d="M153 1248 L172 1248 L172 1263 L153 1263 L153 1248 Z"/>
            </clipPath>
            <clipPath clipPathUnits="userSpaceOnUse" id="clipPath68">
                <path d="M537 1169 L749 1169 L749 1196 L537 1196 L537 1169 Z"/>
            </clipPath>
            <clipPath clipPathUnits="userSpaceOnUse" id="clipPath69">
                <path d="M1113 1188 L1132 1188 L1132 1203 L1113 1203 L1113 1188 Z"/>
            </clipPath>
            <clipPath clipPathUnits="userSpaceOnUse" id="clipPath70">
                <path d="M199 962 L1142 962 L1142 989 L199 989 L199 962 Z"/>
            </clipPath>
            <clipPath clipPathUnits="userSpaceOnUse" id="clipPath71">
                <path d="M153 1048 L172 1048 L172 1063 L153 1063 L153 1048 Z"/>
            </clipPath>
            <clipPath clipPathUnits="userSpaceOnUse" id="clipPath72">
                <path d="M192 1832 L401 1832 L401 1859 L192 1859 L192 1832 Z"/>
            </clipPath>
            <clipPath clipPathUnits="userSpaceOnUse" id="clipPath73">
                <path d="M153 1848 L172 1848 L172 1863 L153 1863 L153 1848 Z"/>
            </clipPath>
            <clipPath clipPathUnits="userSpaceOnUse" id="clipPath74">
                <path d="M323 555 L570 555 L570 582 L323 582 L323 555 Z"/>
            </clipPath>
            <clipPath clipPathUnits="userSpaceOnUse" id="clipPath75">
                <path d="M153 548 L172 548 L172 563 L153 563 L153 548 Z"/>
            </clipPath>
            <clipPath clipPathUnits="userSpaceOnUse" id="clipPath76">
                <path d="M224 1529 L822 1529 L822 1556 L224 1556 L224 1529 Z"/>
            </clipPath>
            <clipPath clipPathUnits="userSpaceOnUse" id="clipPath77">
                <path d="M873 1548 L892 1548 L892 1563 L873 1563 L873 1548 Z"/>
            </clipPath>
        </defs>
        <g font-size="18" fill="url(#linearGradient1)" font-family="'Segoe UI'" stroke-linejoin="round" stroke="url(#linearGradient1)" stroke-width="0" stroke-miterlimit="0">
            <rect x="50" y="50" clip-path="url(#clipPath1)" width="1145" height="1925" stroke="none"/>
        </g>
        <g stroke-width="0.1" font-size="18" font-family="'Segoe UI'" stroke-linecap="butt">
            <line clip-path="url(#clipPath2)" fill="none" x1="542" x2="542" y1="50" y2="67"/>
            <line clip-path="url(#clipPath2)" fill="none" x1="542" x2="542" y1="67" y2="67"/>
            <line clip-path="url(#clipPath2)" fill="none" x1="542" x2="531" y1="67" y2="78"/>
            <line clip-path="url(#clipPath2)" fill="none" x1="531" x2="531" y1="78" y2="78"/>
            <line clip-path="url(#clipPath2)" fill="none" x1="531" x2="50" y1="78" y2="78"/>
            <text xml:space="preserve" x="56" y="73" clip-path="url(#clipPath3)" stroke="none">Sequence Diagram CalendarOnline : getOnlineConferences  </text>
            <rect x="70" y="1115" clip-path="url(#clipPath4)" fill="url(#linearGradient2)" width="1101" height="661" stroke="none"/>
            <line clip-path="url(#clipPath5)" fill="none" x1="117" x2="117" y1="1115" y2="1132"/>
            <line clip-path="url(#clipPath5)" fill="none" x1="117" x2="117" y1="1132" y2="1132"/>
            <line clip-path="url(#clipPath5)" fill="none" x1="117" x2="106" y1="1132" y2="1143"/>
            <line clip-path="url(#clipPath5)" fill="none" x1="106" x2="106" y1="1143" y2="1143"/>
            <line clip-path="url(#clipPath5)" fill="none" x1="106" x2="70" y1="1143" y2="1143"/>
            <text xml:space="preserve" x="71" y="1138" clip-path="url(#clipPath6)" stroke="none">loop</text>
            <rect x="71" y="1144" clip-path="url(#clipPath7)" fill="url(#linearGradient3)" width="1101" opacity="0" height="632" stroke="none"/>
            <line clip-path="url(#clipPath8)" fill="none" x1="71" x2="1172" y1="1144" y2="1144" stroke-dasharray="6.6,3.3" stroke-width="1.1"/>
            <rect x="70" y="1115" clip-path="url(#clipPath9)" fill="none" width="1100" rx="0" ry="0" height="660" stroke-width="1.1"/>
            <rect x="90" y="1435" clip-path="url(#clipPath10)" fill="url(#linearGradient4)" width="861" height="281" stroke="none" stroke-width="1.1"/>
            <line clip-path="url(#clipPath11)" fill="none" x1="137" x2="137" y1="1435" y2="1452"/>
            <line clip-path="url(#clipPath11)" fill="none" x1="137" x2="137" y1="1452" y2="1452"/>
            <line clip-path="url(#clipPath11)" fill="none" x1="137" x2="126" y1="1452" y2="1463"/>
            <line clip-path="url(#clipPath11)" fill="none" x1="126" x2="126" y1="1463" y2="1463"/>
            <line clip-path="url(#clipPath11)" fill="none" x1="126" x2="90" y1="1463" y2="1463"/>
            <text xml:space="preserve" x="91" y="1458" clip-path="url(#clipPath12)" stroke="none">loop</text>
            <rect x="91" y="1464" clip-path="url(#clipPath13)" fill="url(#linearGradient5)" width="861" opacity="0" height="252" stroke="none"/>
            <line clip-path="url(#clipPath14)" fill="none" x1="91" x2="952" y1="1464" y2="1464" stroke-dasharray="6.6,3.3" stroke-width="1.1"/>
            <rect x="90" y="1435" clip-path="url(#clipPath15)" fill="none" width="860" rx="0" ry="0" height="280" stroke-width="1.1"/>
            <rect x="77" y="94" clip-path="url(#clipPath16)" fill="none" width="133" height="28" stroke-width="1.1"/>
            <line clip-path="url(#clipPath16)" fill="none" x1="144" x2="144" y1="122" y2="1955" stroke-dasharray="5,5" stroke-width="1.1"/>
        </g>
        <g stroke-linecap="butt" font-size="18" fill="url(#linearGradient6)" font-family="'Segoe UI'" stroke-dasharray="5,5" stroke="url(#linearGradient6)" stroke-width="1.1">
            <rect x="77" y="94" clip-path="url(#clipPath17)" width="134" opacity="0" height="1862" stroke="none"/>
            <text x="84" y="117" clip-path="url(#clipPath18)" fill="black" stroke="none" xml:space="preserve">CalendarOnline</text>
            <rect x="134" y="175" clip-path="url(#clipPath19)" fill="url(#linearGradient7)" width="20" height="1720" stroke="none"/>
            <rect x="134" y="175" clip-path="url(#clipPath20)" fill="none" width="19" stroke-dasharray="none" rx="0" ry="0" height="1719" stroke="black"/>
            <rect x="410" y="94" clip-path="url(#clipPath21)" fill="none" width="120" stroke-dasharray="none" height="28" stroke="black"/>
            <line clip-path="url(#clipPath21)" fill="none" x1="470" x2="470" y1="122" y2="475" stroke="black"/>
            <rect x="410" y="94" clip-path="url(#clipPath22)" fill="url(#linearGradient8)" width="121" opacity="0" height="382" stroke="none"/>
            <text x="412" y="117" clip-path="url(#clipPath23)" fill="black" stroke="none" xml:space="preserve">GenerateQuery</text>
            <rect x="460" y="175" clip-path="url(#clipPath24)" fill="url(#linearGradient9)" width="20" height="81" stroke="none"/>
            <rect x="460" y="175" clip-path="url(#clipPath25)" fill="none" width="19" stroke-dasharray="none" rx="0" ry="0" height="80" stroke="black"/>
            <rect x="460" y="315" clip-path="url(#clipPath26)" fill="url(#linearGradient10)" width="20" stroke-dasharray="none" height="100" stroke="none"/>
            <rect x="460" y="315" clip-path="url(#clipPath27)" fill="none" width="19" stroke-dasharray="none" rx="0" ry="0" height="99" stroke="black"/>
            <rect x="690" y="404" clip-path="url(#clipPath28)" fill="none" width="120" stroke-dasharray="none" height="28" stroke="black"/>
            <line clip-path="url(#clipPath28)" fill="none" x1="750" x2="750" y1="432" y2="595" stroke="black"/>
            <rect x="690" y="404" clip-path="url(#clipPath29)" fill="url(#linearGradient11)" width="121" opacity="0" height="192" stroke="none"/>
            <text x="693" y="427" clip-path="url(#clipPath30)" fill="black" stroke="none" xml:space="preserve">CalendarQuery</text>
            <rect x="740" y="455" clip-path="url(#clipPath31)" fill="url(#linearGradient12)" width="20" height="100" stroke="none"/>
            <rect x="740" y="455" clip-path="url(#clipPath32)" fill="none" width="19" stroke-dasharray="none" rx="0" ry="0" height="99" stroke="black"/>
            <rect x="1090" y="94" clip-path="url(#clipPath33)" fill="none" width="99" stroke-dasharray="none" height="28" stroke="black"/>
            <line clip-path="url(#clipPath33)" fill="none" x1="1140" x2="1140" y1="122" y2="1335" stroke="black"/>
            <rect x="1090" y="94" clip-path="url(#clipPath34)" fill="url(#linearGradient13)" width="100" opacity="0" height="1242" stroke="none"/>
            <text x="1106" y="117" clip-path="url(#clipPath35)" fill="black" stroke="none" xml:space="preserve">Calendar</text>
            <rect x="1130" y="1195" clip-path="url(#clipPath36)" fill="url(#linearGradient14)" width="20" height="61" stroke="none"/>
            <rect x="1130" y="1195" clip-path="url(#clipPath37)" fill="none" width="19" stroke-dasharray="none" rx="0" ry="0" height="60" stroke="black"/>
            <rect x="215" y="992" clip-path="url(#clipPath38)" fill="url(#linearGradient15)" width="212" stroke-dasharray="none" height="60" stroke="none"/>
            <text x="221" y="1018" clip-path="url(#clipPath39)" fill="black" stroke-dasharray="none" stroke="none" xml:space="preserve">for each calendarsResult</text>
            <line clip-path="url(#clipPath40)" fill="none" x1="215" x2="414" y1="992" y2="992" stroke-dasharray="none" stroke="black"/>
            <line clip-path="url(#clipPath40)" fill="none" x1="414" x2="426" y1="992" y2="1004" stroke-dasharray="none" stroke="black"/>
            <line clip-path="url(#clipPath40)" fill="none" x1="426" x2="426" y1="1004" y2="1051" stroke-dasharray="none" stroke="black"/>
            <line clip-path="url(#clipPath40)" fill="none" x1="426" x2="215" y1="1051" y2="1051" stroke-dasharray="none" stroke="black"/>
            <line clip-path="url(#clipPath40)" fill="none" x1="215" x2="215" y1="1051" y2="992" stroke-dasharray="none" stroke="black"/>
            <line clip-path="url(#clipPath40)" fill="none" x1="215" x2="215" y1="992" y2="992" stroke-dasharray="none" stroke="black"/>
            <line clip-path="url(#clipPath40)" fill="none" x1="414" x2="414" y1="992" y2="1004" stroke-dasharray="none" stroke="black"/>
            <line clip-path="url(#clipPath40)" fill="none" x1="414" x2="427" y1="1004" y2="1004" stroke-dasharray="none" stroke="black"/>
            <rect x="830" y="94" clip-path="url(#clipPath41)" fill="none" width="140" stroke-dasharray="none" height="28" stroke="black"/>
            <line clip-path="url(#clipPath41)" fill="none" x1="900" x2="900" y1="122" y2="1755" stroke="black"/>
            <rect x="830" y="94" clip-path="url(#clipPath42)" fill="url(#linearGradient16)" width="141" opacity="0" height="1662" stroke="none"/>
            <text x="831" y="117" clip-path="url(#clipPath43)" fill="black" stroke="none" xml:space="preserve">ConferenceRead...</text>
            <rect x="890" y="1555" clip-path="url(#clipPath44)" fill="url(#linearGradient17)" width="20" height="100" stroke="none"/>
            <rect x="890" y="1555" clip-path="url(#clipPath45)" fill="none" width="19" stroke-dasharray="none" rx="0" ry="0" height="99" stroke="black"/>
            <rect x="50" y="50" clip-path="url(#clipPath46)" fill="none" width="1144" stroke-dasharray="none" rx="0" ry="0" height="1924" stroke="black"/>
        </g>
        <g stroke-linecap="butt" font-size="18" text-rendering="optimizeLegibility" font-family="'Segoe UI'" stroke-dasharray="6.6,3.3" stroke-width="1.1">
            <line clip-path="url(#clipPath47)" fill="none" x1="890" x2="154" y1="1655" y2="1655"/>
            <text xml:space="preserve" x="402" y="1676" clip-path="url(#clipPath48)" stroke="none">increment listConferencesUser</text>
            <line clip-path="url(#clipPath49)" fill="none" x1="170" x2="154" y1="1649" y2="1655" stroke-dasharray="none"/>
            <line clip-path="url(#clipPath49)" fill="none" x1="154" x2="170" y1="1655" y2="1661" stroke-dasharray="none"/>
            <line clip-path="url(#clipPath47)" fill="none" x1="154" x2="196" y1="1495" y2="1495" stroke-dasharray="none"/>
            <line clip-path="url(#clipPath47)" fill="none" x1="196" x2="196" y1="1495" y2="1535" stroke-dasharray="none"/>
            <line clip-path="url(#clipPath47)" fill="none" x1="196" x2="154" y1="1535" y2="1535" stroke-dasharray="none"/>
            <text x="187" y="1513" clip-path="url(#clipPath50)" stroke-dasharray="none" stroke="none" xml:space="preserve">vEventFound : eventIterator.next()</text>
            <polygon stroke-dasharray="none" clip-path="url(#clipPath51)" points=" 154 1535 170 1529 170 1541" stroke="none"/>
            <polygon fill="none" stroke-dasharray="none" clip-path="url(#clipPath51)" points=" 154 1535 170 1529 170 1541"/>
            <line clip-path="url(#clipPath47)" fill="none" x1="154" x2="460" y1="175" y2="175" stroke-dasharray="none"/>
            <text x="169" y="170" clip-path="url(#clipPath52)" stroke-dasharray="none" stroke="none" xml:space="preserve">searchQuery : new GenerateQuery()</text>
            <polygon stroke-dasharray="none" clip-path="url(#clipPath53)" points=" 460 175 444 181 444 169" stroke="none"/>
            <polygon fill="none" stroke-dasharray="none" clip-path="url(#clipPath53)" points=" 460 175 444 181 444 169"/>
            <line clip-path="url(#clipPath47)" fill="none" x1="250" x2="203" y1="1052" y2="1115"/>
            <line clip-path="url(#clipPath47)" fill="none" x1="154" x2="196" y1="776" y2="776" stroke-dasharray="none"/>
            <line clip-path="url(#clipPath47)" fill="none" x1="196" x2="196" y1="776" y2="855" stroke-dasharray="none"/>
            <line clip-path="url(#clipPath47)" fill="none" x1="196" x2="154" y1="855" y2="855" stroke-dasharray="none"/>
            <text x="200" y="824" clip-path="url(#clipPath54)" stroke-dasharray="none" stroke="none" xml:space="preserve">listConferenceUser : Set&lt;Conference&gt;</text>
            <polygon stroke-dasharray="none" clip-path="url(#clipPath55)" points=" 154 855 170 849 170 861" stroke="none"/>
            <polygon fill="none" stroke-dasharray="none" clip-path="url(#clipPath55)" points=" 154 855 170 849 170 861"/>
            <line clip-path="url(#clipPath47)" fill="none" x1="154" x2="460" y1="315" y2="315" stroke-dasharray="none"/>
            <text x="153" y="310" clip-path="url(#clipPath56)" stroke-dasharray="none" stroke="none" xml:space="preserve">calendarQuery : searchQuery.generate()</text>
            <polygon stroke-dasharray="none" clip-path="url(#clipPath57)" points=" 460 315 444 321 444 309" stroke="none"/>
            <polygon fill="none" stroke-dasharray="none" clip-path="url(#clipPath57)" points=" 460 315 444 321 444 309"/>
            <line clip-path="url(#clipPath47)" fill="none" x1="154" x2="196" y1="675" y2="675" stroke-dasharray="none"/>
            <line clip-path="url(#clipPath47)" fill="none" x1="196" x2="196" y1="675" y2="755" stroke-dasharray="none"/>
            <line clip-path="url(#clipPath47)" fill="none" x1="196" x2="154" y1="755" y2="755" stroke-dasharray="none"/>
            <text x="200" y="723" clip-path="url(#clipPath58)" stroke-dasharray="none" stroke="none" xml:space="preserve">calendarsResult : List&lt;Calendar&gt;</text>
            <polygon stroke-dasharray="none" clip-path="url(#clipPath59)" points=" 154 755 170 749 170 761" stroke="none"/>
            <polygon fill="none" stroke-dasharray="none" clip-path="url(#clipPath59)" points=" 154 755 170 749 170 761"/>
            <line clip-path="url(#clipPath47)" fill="none" x1="154" x2="196" y1="1316" y2="1316" stroke-dasharray="none"/>
            <line clip-path="url(#clipPath47)" fill="none" x1="196" x2="196" y1="1316" y2="1355" stroke-dasharray="none"/>
            <line clip-path="url(#clipPath47)" fill="none" x1="196" x2="154" y1="1355" y2="1355" stroke-dasharray="none"/>
            <text x="186" y="1333" clip-path="url(#clipPath60)" stroke-dasharray="none" stroke="none" xml:space="preserve">componentList.iterator() : eventIterator </text>
            <polygon stroke-dasharray="none" clip-path="url(#clipPath61)" points=" 154 1355 170 1349 170 1361" stroke="none"/>
            <polygon fill="none" stroke-dasharray="none" clip-path="url(#clipPath61)" points=" 154 1355 170 1349 170 1361"/>
            <line clip-path="url(#clipPath47)" fill="none" x1="460" x2="154" y1="255" y2="255"/>
            <text xml:space="preserve" x="191" y="276" clip-path="url(#clipPath62)" stroke="none">searchQuery : GenerateQuery</text>
            <line clip-path="url(#clipPath63)" fill="none" x1="170" x2="154" y1="249" y2="255" stroke-dasharray="none"/>
            <line clip-path="url(#clipPath63)" fill="none" x1="154" x2="170" y1="255" y2="261" stroke-dasharray="none"/>
            <line clip-path="url(#clipPath47)" fill="none" x1="480" x2="690" y1="415" y2="415"/>
            <text xml:space="preserve" x="495" y="410" clip-path="url(#clipPath64)" stroke="none">searchQuery.generate()</text>
            <line clip-path="url(#clipPath65)" fill="none" x1="674" x2="690" y1="421" y2="415" stroke-dasharray="none"/>
            <line clip-path="url(#clipPath65)" fill="none" x1="690" x2="674" y1="415" y2="409" stroke-dasharray="none"/>
            <line clip-path="url(#clipPath47)" fill="none" x1="1130" x2="154" y1="1255" y2="1255"/>
            <text xml:space="preserve" x="475" y="1276" clip-path="url(#clipPath66)" stroke="none">componentList : ComponentList&lt;VEvent&gt;</text>
            <line clip-path="url(#clipPath67)" fill="none" x1="170" x2="154" y1="1249" y2="1255" stroke-dasharray="none"/>
            <line clip-path="url(#clipPath67)" fill="none" x1="154" x2="170" y1="1255" y2="1261" stroke-dasharray="none"/>
            <line clip-path="url(#clipPath47)" fill="none" x1="154" x2="1130" y1="1195" y2="1195" stroke-dasharray="none"/>
            <text x="538" y="1190" clip-path="url(#clipPath68)" stroke-dasharray="none" stroke="none" xml:space="preserve">calendar.getComponents()</text>
            <polygon stroke-dasharray="none" clip-path="url(#clipPath69)" points=" 1130 1195 1114 1201 1114 1189" stroke="none"/>
            <polygon fill="none" stroke-dasharray="none" clip-path="url(#clipPath69)" points=" 1130 1195 1114 1201 1114 1189"/>
            <line clip-path="url(#clipPath47)" fill="none" x1="154" x2="196" y1="895" y2="895" stroke-dasharray="none"/>
            <line clip-path="url(#clipPath47)" fill="none" x1="196" x2="196" y1="895" y2="1055" stroke-dasharray="none"/>
            <line clip-path="url(#clipPath47)" fill="none" x1="196" x2="154" y1="1055" y2="1055" stroke-dasharray="none"/>
            <text x="200" y="983" clip-path="url(#clipPath70)" stroke-dasharray="none" stroke="none" xml:space="preserve">calendarsResult : this.connector.getCollectionCalendarsOnline().queryCalendars(this.connector.httpclient, calendarQuery)</text>
            <polygon stroke-dasharray="none" clip-path="url(#clipPath71)" points=" 154 1055 170 1049 170 1061" stroke="none"/>
            <polygon fill="none" stroke-dasharray="none" clip-path="url(#clipPath71)" points=" 154 1055 170 1049 170 1061"/>
            <line clip-path="url(#clipPath47)" fill="none" x1="154" x2="196" y1="1815" y2="1815" stroke-dasharray="none"/>
            <line clip-path="url(#clipPath47)" fill="none" x1="196" x2="196" y1="1815" y2="1855" stroke-dasharray="none"/>
            <line clip-path="url(#clipPath47)" fill="none" x1="196" x2="154" y1="1855" y2="1855" stroke-dasharray="none"/>
            <text x="193" y="1853" clip-path="url(#clipPath72)" stroke-dasharray="none" stroke="none" xml:space="preserve">return listConferencesUser</text>
            <polygon stroke-dasharray="none" clip-path="url(#clipPath73)" points=" 154 1855 170 1849 170 1861" stroke="none"/>
            <polygon fill="none" stroke-dasharray="none" clip-path="url(#clipPath73)" points=" 154 1855 170 1849 170 1861"/>
            <line clip-path="url(#clipPath47)" fill="none" x1="740" x2="154" y1="555" y2="555" stroke-dasharray="none"/>
            <text x="324" y="576" clip-path="url(#clipPath74)" stroke-dasharray="none" stroke="none" xml:space="preserve">calendarQuery : CalendarQuery</text>
            <polygon stroke-dasharray="none" clip-path="url(#clipPath75)" points=" 154 555 170 549 170 561" stroke="none"/>
            <polygon fill="none" stroke-dasharray="none" clip-path="url(#clipPath75)" points=" 154 555 170 549 170 561"/>
            <line clip-path="url(#clipPath47)" fill="none" x1="154" x2="890" y1="1555" y2="1555" stroke-dasharray="none"/>
            <text x="225" y="1550" clip-path="url(#clipPath76)" stroke-dasharray="none" stroke="none" xml:space="preserve">listConferencesUser.add(ConferenceReader.createConference(vEventFound))</text>
            <polygon stroke-dasharray="none" clip-path="url(#clipPath77)" points=" 890 1555 874 1561 874 1549" stroke="none"/>
            <polygon fill="none" stroke-dasharray="none" clip-path="url(#clipPath77)" points=" 890 1555 874 1561 874 1549"/>
            <line clip-path="url(#clipPath47)" fill="none" x1="154" x2="460" y1="175" y2="175" stroke-dasharray="none"/>
            <text x="169" y="170" clip-path="url(#clipPath52)" stroke-dasharray="none" stroke="none" xml:space="preserve">searchQuery : new GenerateQuery()</text>
            <polygon stroke-dasharray="none" clip-path="url(#clipPath53)" points=" 460 175 444 181 444 169" stroke="none"/>
            <polygon fill="none" stroke-dasharray="none" clip-path="url(#clipPath53)" points=" 460 175 444 181 444 169"/>
            <line clip-path="url(#clipPath47)" fill="none" x1="460" x2="154" y1="255" y2="255"/>
            <text xml:space="preserve" x="191" y="276" clip-path="url(#clipPath62)" stroke="none">searchQuery : GenerateQuery</text>
            <line clip-path="url(#clipPath63)" fill="none" x1="170" x2="154" y1="249" y2="255" stroke-dasharray="none"/>
            <line clip-path="url(#clipPath63)" fill="none" x1="154" x2="170" y1="255" y2="261" stroke-dasharray="none"/>
            <line clip-path="url(#clipPath47)" fill="none" x1="154" x2="460" y1="315" y2="315" stroke-dasharray="none"/>
            <text x="153" y="310" clip-path="url(#clipPath56)" stroke-dasharray="none" stroke="none" xml:space="preserve">calendarQuery : searchQuery.generate()</text>
            <polygon stroke-dasharray="none" clip-path="url(#clipPath57)" points=" 460 315 444 321 444 309" stroke="none"/>
            <polygon fill="none" stroke-dasharray="none" clip-path="url(#clipPath57)" points=" 460 315 444 321 444 309"/>
            <line clip-path="url(#clipPath47)" fill="none" x1="740" x2="154" y1="555" y2="555" stroke-dasharray="none"/>
            <text x="324" y="576" clip-path="url(#clipPath74)" stroke-dasharray="none" stroke="none" xml:space="preserve">calendarQuery : CalendarQuery</text>
            <polygon stroke-dasharray="none" clip-path="url(#clipPath75)" points=" 154 555 170 549 170 561" stroke="none"/>
            <polygon fill="none" stroke-dasharray="none" clip-path="url(#clipPath75)" points=" 154 555 170 549 170 561"/>
            <line clip-path="url(#clipPath47)" fill="none" x1="154" x2="196" y1="675" y2="675" stroke-dasharray="none"/>
            <line clip-path="url(#clipPath47)" fill="none" x1="196" x2="196" y1="675" y2="755" stroke-dasharray="none"/>
            <line clip-path="url(#clipPath47)" fill="none" x1="196" x2="154" y1="755" y2="755" stroke-dasharray="none"/>
            <text x="200" y="723" clip-path="url(#clipPath58)" stroke-dasharray="none" stroke="none" xml:space="preserve">calendarsResult : List&lt;Calendar&gt;</text>
            <polygon stroke-dasharray="none" clip-path="url(#clipPath59)" points=" 154 755 170 749 170 761" stroke="none"/>
            <polygon fill="none" stroke-dasharray="none" clip-path="url(#clipPath59)" points=" 154 755 170 749 170 761"/>
            <line clip-path="url(#clipPath47)" fill="none" x1="154" x2="196" y1="895" y2="895" stroke-dasharray="none"/>
            <line clip-path="url(#clipPath47)" fill="none" x1="196" x2="196" y1="895" y2="1055" stroke-dasharray="none"/>
            <line clip-path="url(#clipPath47)" fill="none" x1="196" x2="154" y1="1055" y2="1055" stroke-dasharray="none"/>
            <text x="200" y="983" clip-path="url(#clipPath70)" stroke-dasharray="none" stroke="none" xml:space="preserve">calendarsResult : this.connector.getCollectionCalendarsOnline().queryCalendars(this.connector.httpclient, calendarQuery)</text>
            <polygon stroke-dasharray="none" clip-path="url(#clipPath71)" points=" 154 1055 170 1049 170 1061" stroke="none"/>
            <polygon fill="none" stroke-dasharray="none" clip-path="url(#clipPath71)" points=" 154 1055 170 1049 170 1061"/>
            <line clip-path="url(#clipPath47)" fill="none" x1="250" x2="203" y1="1052" y2="1115"/>
            <line clip-path="url(#clipPath47)" fill="none" x1="154" x2="1130" y1="1195" y2="1195" stroke-dasharray="none"/>
            <text x="538" y="1190" clip-path="url(#clipPath68)" stroke-dasharray="none" stroke="none" xml:space="preserve">calendar.getComponents()</text>
            <polygon stroke-dasharray="none" clip-path="url(#clipPath69)" points=" 1130 1195 1114 1201 1114 1189" stroke="none"/>
            <polygon fill="none" stroke-dasharray="none" clip-path="url(#clipPath69)" points=" 1130 1195 1114 1201 1114 1189"/>
            <line clip-path="url(#clipPath47)" fill="none" x1="1130" x2="154" y1="1255" y2="1255"/>
            <text xml:space="preserve" x="475" y="1276" clip-path="url(#clipPath66)" stroke="none">componentList : ComponentList&lt;VEvent&gt;</text>
            <line clip-path="url(#clipPath67)" fill="none" x1="170" x2="154" y1="1249" y2="1255" stroke-dasharray="none"/>
            <line clip-path="url(#clipPath67)" fill="none" x1="154" x2="170" y1="1255" y2="1261" stroke-dasharray="none"/>
            <line clip-path="url(#clipPath47)" fill="none" x1="154" x2="196" y1="1316" y2="1316" stroke-dasharray="none"/>
            <line clip-path="url(#clipPath47)" fill="none" x1="196" x2="196" y1="1316" y2="1355" stroke-dasharray="none"/>
            <line clip-path="url(#clipPath47)" fill="none" x1="196" x2="154" y1="1355" y2="1355" stroke-dasharray="none"/>
            <text x="186" y="1333" clip-path="url(#clipPath60)" stroke-dasharray="none" stroke="none" xml:space="preserve">componentList.iterator() : eventIterator </text>
            <polygon stroke-dasharray="none" clip-path="url(#clipPath61)" points=" 154 1355 170 1349 170 1361" stroke="none"/>
            <polygon fill="none" stroke-dasharray="none" clip-path="url(#clipPath61)" points=" 154 1355 170 1349 170 1361"/>
            <line clip-path="url(#clipPath47)" fill="none" x1="154" x2="890" y1="1555" y2="1555" stroke-dasharray="none"/>
            <text x="225" y="1550" clip-path="url(#clipPath76)" stroke-dasharray="none" stroke="none" xml:space="preserve">listConferencesUser.add(ConferenceReader.createConference(vEventFound))</text>
            <polygon stroke-dasharray="none" clip-path="url(#clipPath77)" points=" 890 1555 874 1561 874 1549" stroke="none"/>
            <polygon fill="none" stroke-dasharray="none" clip-path="url(#clipPath77)" points=" 890 1555 874 1561 874 1549"/>
            <line clip-path="url(#clipPath47)" fill="none" x1="890" x2="154" y1="1655" y2="1655"/>
            <text xml:space="preserve" x="402" y="1676" clip-path="url(#clipPath48)" stroke="none">increment listConferencesUser</text>
            <line clip-path="url(#clipPath49)" fill="none" x1="170" x2="154" y1="1649" y2="1655" stroke-dasharray="none"/>
            <line clip-path="url(#clipPath49)" fill="none" x1="154" x2="170" y1="1655" y2="1661" stroke-dasharray="none"/>
            <line clip-path="url(#clipPath47)" fill="none" x1="154" x2="196" y1="1495" y2="1495" stroke-dasharray="none"/>
            <line clip-path="url(#clipPath47)" fill="none" x1="196" x2="196" y1="1495" y2="1535" stroke-dasharray="none"/>
            <line clip-path="url(#clipPath47)" fill="none" x1="196" x2="154" y1="1535" y2="1535" stroke-dasharray="none"/>
            <text x="187" y="1513" clip-path="url(#clipPath50)" stroke-dasharray="none" stroke="none" xml:space="preserve">vEventFound : eventIterator.next()</text>
            <polygon stroke-dasharray="none" clip-path="url(#clipPath51)" points=" 154 1535 170 1529 170 1541" stroke="none"/>
            <polygon fill="none" stroke-dasharray="none" clip-path="url(#clipPath51)" points=" 154 1535 170 1529 170 1541"/>
            <line clip-path="url(#clipPath47)" fill="none" x1="154" x2="196" y1="776" y2="776" stroke-dasharray="none"/>
            <line clip-path="url(#clipPath47)" fill="none" x1="196" x2="196" y1="776" y2="855" stroke-dasharray="none"/>
            <line clip-path="url(#clipPath47)" fill="none" x1="196" x2="154" y1="855" y2="855" stroke-dasharray="none"/>
            <text x="200" y="824" clip-path="url(#clipPath54)" stroke-dasharray="none" stroke="none" xml:space="preserve">listConferenceUser : Set&lt;Conference&gt;</text>
            <polygon stroke-dasharray="none" clip-path="url(#clipPath55)" points=" 154 855 170 849 170 861" stroke="none"/>
            <polygon fill="none" stroke-dasharray="none" clip-path="url(#clipPath55)" points=" 154 855 170 849 170 861"/>
            <line clip-path="url(#clipPath47)" fill="none" x1="154" x2="196" y1="1815" y2="1815" stroke-dasharray="none"/>
            <line clip-path="url(#clipPath47)" fill="none" x1="196" x2="196" y1="1815" y2="1855" stroke-dasharray="none"/>
            <line clip-path="url(#clipPath47)" fill="none" x1="196" x2="154" y1="1855" y2="1855" stroke-dasharray="none"/>
            <text x="193" y="1853" clip-path="url(#clipPath72)" stroke-dasharray="none" stroke="none" xml:space="preserve">return listConferencesUser</text>
            <polygon stroke-dasharray="none" clip-path="url(#clipPath73)" points=" 154 1855 170 1849 170 1861" stroke="none"/>
            <polygon fill="none" stroke-dasharray="none" clip-path="url(#clipPath73)" points=" 154 1855 170 1849 170 1861"/>
            <line clip-path="url(#clipPath47)" fill="none" x1="480" x2="690" y1="415" y2="415"/>
            <text xml:space="preserve" x="495" y="410" clip-path="url(#clipPath64)" stroke="none">searchQuery.generate()</text>
            <line clip-path="url(#clipPath65)" fill="none" x1="674" x2="690" y1="421" y2="415" stroke-dasharray="none"/>
            <line clip-path="url(#clipPath65)" fill="none" x1="690" x2="674" y1="415" y2="409" stroke-dasharray="none"/>
        </g>
    </g>
</svg>
